<mxfile host="Electron" modified="2022-09-24T23:51:28.467Z" agent="5.0 (Macintosh; Intel Mac OS X 10_15_7) AppleWebKit/537.36 (KHTML, like Gecko) draw.io/20.2.3 Chrome/102.0.5005.167 Electron/19.0.11 Safari/537.36" etag="djIJ_xCIeYS1vS0s3GZ9" compressed="false" version="20.2.3" type="device">
  <diagram id="zHJoLA6md0Yeo67uzJwa" name="第1頁">
    <mxGraphModel dx="850" dy="559" grid="1" gridSize="5" guides="0" tooltips="1" connect="1" arrows="1" fold="1" page="1" pageScale="1" pageWidth="827" pageHeight="1169" math="0" shadow="0">
      <root>
        <mxCell id="0" />
        <mxCell id="1" parent="0" />
        <mxCell id="m3pfPtTyuK7HYTcpv6uo-1" style="edgeStyle=orthogonalEdgeStyle;rounded=1;sketch=0;orthogonalLoop=1;jettySize=auto;html=1;fontFamily=Courier New;fontSize=12;strokeWidth=2;entryX=0.5;entryY=0;entryDx=0;entryDy=0;entryPerimeter=0;exitX=0.5;exitY=1;exitDx=0;exitDy=0;" parent="1" source="m3pfPtTyuK7HYTcpv6uo-2" target="m3pfPtTyuK7HYTcpv6uo-4" edge="1">
          <mxGeometry relative="1" as="geometry">
            <mxPoint x="170" y="20" as="sourcePoint" />
            <mxPoint x="170" y="80" as="targetPoint" />
          </mxGeometry>
        </mxCell>
        <object label="" type="ENTRY_POINT" id="m3pfPtTyuK7HYTcpv6uo-2">
          <mxCell style="ellipse;fontStyle=0;fontSize=12;sketch=0;rounded=1;align=left;fontFamily=Iosevka Fixed;strokeWidth=2;shadow=0;html=0;" parent="1" vertex="1">
            <mxGeometry x="160" y="80" width="40" height="40" as="geometry" />
          </mxCell>
        </object>
        <mxCell id="Dx2b7ezfvi1oqeqgblj4-1" style="edgeStyle=orthogonalEdgeStyle;rounded=0;orthogonalLoop=1;jettySize=auto;html=1;entryX=0.5;entryY=0;entryDx=0;entryDy=0;strokeWidth=2;fontFamily=Iosevka Fixed;fontStyle=0" parent="1" source="m3pfPtTyuK7HYTcpv6uo-4" target="W1SwkrzB2UoG-p9XxQ3V-2" edge="1">
          <mxGeometry relative="1" as="geometry">
            <mxPoint x="180" y="260" as="targetPoint" />
          </mxGeometry>
        </mxCell>
        <object label="var size = screen.getSize();&#xa;print(&#39;width = &#39; + size.width);&#xa;print(&#39;height = &#39; + size.height);" type="PROCESS" id="m3pfPtTyuK7HYTcpv6uo-4">
          <mxCell style="fontSize=12;fontStyle=0;sketch=0;rounded=0;fontFamily=Iosevka Fixed;align=left;strokeWidth=2;arcSize=7;shadow=0;html=0;spacingLeft=5;verticalAlign=top;spacingTop=0;spacing=5;" parent="1" vertex="1">
            <mxGeometry x="40" y="160" width="280" height="60" as="geometry" />
          </mxCell>
        </object>
        <object label="" type="EXIT_POINT" id="m3pfPtTyuK7HYTcpv6uo-22">
          <mxCell style="shape=sumEllipse;perimeter=ellipsePerimeter;backgroundOutline=1;fontStyle=0;fontSize=16;sketch=0;rounded=1;fontFamily=Iosevka Fixed;align=left;strokeWidth=2;shadow=0;html=0;" parent="1" vertex="1">
            <mxGeometry x="160" y="380" width="40" height="40" as="geometry" />
          </mxCell>
        </object>
        <mxCell id="UbTHWvcrtNXVTwTKfJbN-1" value="內建 screen 物件功能說明" style="text;html=1;strokeColor=default;fillColor=none;align=left;verticalAlign=middle;whiteSpace=wrap;rounded=0;spacingLeft=5;strokeWidth=1;fontSize=20;movable=1;resizable=1;rotatable=1;deletable=1;editable=1;connectable=1;fontStyle=1" parent="1" vertex="1">
          <mxGeometry x="140" y="20" width="660" height="40" as="geometry" />
        </mxCell>
        <mxCell id="UbTHWvcrtNXVTwTKfJbN-2" value="screen" style="rounded=0;whiteSpace=wrap;html=1;fillColor=#000000;fontColor=#FFFFFF;fontSize=18;fontStyle=1;strokeWidth=1;movable=1;resizable=1;rotatable=1;deletable=1;editable=1;connectable=1;" parent="1" vertex="1">
          <mxGeometry x="40" y="20" width="100" height="40" as="geometry" />
        </mxCell>
        <mxCell id="Ot0KBQQzt72eOoxGLC2g-2" value="&lt;font style=&quot;font-size: 14px;&quot;&gt;&lt;b style=&quot;&quot;&gt;&lt;font style=&quot;font-size: 14px;&quot;&gt;函數：screen.getSize()&lt;/font&gt;&lt;/b&gt;&lt;br&gt;說明：取得螢幕大小&lt;/font&gt;&lt;span style=&quot;background-color: initial;&quot;&gt;&lt;font style=&quot;font-size: 14px;&quot;&gt;。&lt;br&gt;回傳結果：&lt;br&gt;&lt;/font&gt;&lt;/span&gt;&lt;blockquote style=&quot;margin: 0 0 0 40px; border: none; padding: 0px;&quot;&gt;&lt;span style=&quot;background-color: initial;&quot;&gt;&lt;font style=&quot;font-size: 14px;&quot;&gt;物件 {width ,height}。&lt;/font&gt;&lt;/span&gt;&lt;/blockquote&gt;" style="shape=note;strokeWidth=2;fontSize=14;size=20;whiteSpace=wrap;html=1;fillColor=#ffff88;strokeColor=#36393d;align=left;spacingLeft=5;verticalAlign=top;fontFamily=Tahoma;" parent="1" vertex="1">
          <mxGeometry x="380" y="80" width="260" height="85" as="geometry" />
        </mxCell>
        <mxCell id="W1SwkrzB2UoG-p9XxQ3V-1" value="&lt;font style=&quot;font-size: 14px;&quot;&gt;&lt;b style=&quot;&quot;&gt;&lt;font style=&quot;font-size: 14px;&quot;&gt;函數：screen.getColor(x, y)&lt;/font&gt;&lt;/b&gt;&lt;br&gt;說明：取得顏色。&lt;br&gt;&lt;/font&gt;x&lt;br&gt;&lt;blockquote style=&quot;margin: 0px 0px 0px 40px; border: none; padding: 0px;&quot;&gt;&lt;span style=&quot;background-color: initial;&quot;&gt;x 座標，整數值。&lt;/span&gt;&lt;br&gt;&lt;/blockquote&gt;&lt;blockquote style=&quot;margin: 0px 0px 0px 40px; border: none; padding: 0px;&quot;&gt;&lt;/blockquote&gt;&lt;span style=&quot;background-color: initial;&quot;&gt;y&lt;/span&gt;&lt;br&gt;&lt;blockquote style=&quot;margin: 0px 0px 0px 40px; border: none; padding: 0px;&quot;&gt;&lt;span style=&quot;background-color: initial;&quot;&gt;y 座標，整數值。&lt;/span&gt;&lt;/blockquote&gt;&lt;span style=&quot;background-color: initial;&quot;&gt;&lt;font style=&quot;font-size: 14px;&quot;&gt;回傳結果：&lt;br&gt;&lt;/font&gt;&lt;/span&gt;&lt;blockquote style=&quot;margin: 0 0 0 40px; border: none; padding: 0px;&quot;&gt;&lt;span style=&quot;background-color: initial;&quot;&gt;&lt;font style=&quot;font-size: 14px;&quot;&gt;用 16 進位字串表示的字串，例如：f3a0e1。&lt;/font&gt;&lt;/span&gt;&lt;/blockquote&gt;" style="shape=note;strokeWidth=2;fontSize=14;size=20;whiteSpace=wrap;html=1;fillColor=#ffff88;strokeColor=#36393d;align=left;spacingLeft=5;verticalAlign=top;fontFamily=Tahoma;" vertex="1" parent="1">
          <mxGeometry x="380" y="200" width="260" height="180" as="geometry" />
        </mxCell>
        <mxCell id="W1SwkrzB2UoG-p9XxQ3V-3" style="edgeStyle=orthogonalEdgeStyle;rounded=0;orthogonalLoop=1;jettySize=auto;html=1;entryX=0.5;entryY=0;entryDx=0;entryDy=0;strokeWidth=2;" edge="1" parent="1" source="W1SwkrzB2UoG-p9XxQ3V-2" target="m3pfPtTyuK7HYTcpv6uo-22">
          <mxGeometry relative="1" as="geometry" />
        </mxCell>
        <object label="print(screen.getColor(100,100));" type="PROCESS" id="W1SwkrzB2UoG-p9XxQ3V-2">
          <mxCell style="fontSize=12;fontStyle=0;sketch=0;rounded=0;fontFamily=Iosevka Fixed;align=left;strokeWidth=2;arcSize=7;shadow=0;html=0;spacingLeft=5;verticalAlign=top;spacingTop=0;spacing=5;" vertex="1" parent="1">
            <mxGeometry x="40" y="260" width="280" height="40" as="geometry" />
          </mxCell>
        </object>
      </root>
    </mxGraphModel>
  </diagram>
</mxfile>
